<svg version="1" xmlns="http://www.w3.org/2000/svg" width="219.014" height="71.791" viewBox="0 0 219.014 71.791"><path d="M128.55 55.094c1.617 0 3.27-.346 4.966-1l.114.308c-1.924 1.85-4.62 2.812-7.044 2.812-5.274 0-9.97-3.62-9.97-10.24 0-5.737 4.156-10.242 10.778-10.242 1.693 0 3.58.27 5.582 1v6.046h-.347l-3.62-6.39c-2.887-.193-6.66 1.615-6.66 8.97 0 6.08 2.735 8.736 6.2 8.736zm39.454.346l2.772.964v.346H159.84v-.346l2.813-.963V39.35l-2.812-.85v-.27l7.933-1.5.23.192v18.52zm-2.695-27.873c1.77 0 3.08 1.27 3.08 3.042s-1.31 3.08-3.08 3.08-3.08-1.31-3.08-3.08 1.31-3.043 3.08-3.043zm15.013 27.873l2.77.964v.346H172.16v-.346l2.81-.963V28.107l-2.81-.847v-.27l7.93-1.502.232.192v29.76zm12.318 0l2.772.964v.346h-10.934v-.346l2.81-.963V39.35l-2.81-.85v-.27l7.93-1.5.232.192v18.52zm-2.696-27.873c1.772 0 3.08 1.27 3.08 3.042s-1.308 3.08-3.08 3.08c-1.77 0-3.08-1.31-3.08-3.08s1.31-3.043 3.08-3.043zm20.946.539l-2.77-.847v-.27l7.892-1.502.23.192v28.912l2.772.848v.27l-7.893 1.502-.23-.193v-2.696l-.077-.038c-1.73 1.81-3.81 2.926-6.197 2.926-3.773 0-7.508-3.312-7.508-9.97 0-7.163 4.773-10.512 9.28-10.512 1.614 0 3.192.348 4.503 1.078v-9.702zm0 10.28a8.333 8.333 0 0 0-3.117-.616c-2.733 0-4.928 2.695-4.928 9.125 0 6.236 1.808 8.2 4.272 8.2 1.27 0 2.503-.5 3.773-1.425V38.387zm-55.256 17.108V43.252c0-4.89-2.81-6.467-5.89-6.467-2.502 0-4.698.96-6.546 2.926l-.076-.038v-15.66l-5.352-5.35v36.832l-2.81.964v.347h10.663v-.347l-2.502-.964V40.25c1.388-.923 2.89-1.463 4.274-1.463 1.693 0 2.887.96 2.887 3.54v13.167l-2.54.964v.347h10.665v-.347l-2.77-.964zM149.486 66.246l.017.01c.394-.418.86-.623 1.392-.623.656 0 1.254.336 1.254 1.376v2.603l.588.204v.073h-2.268v-.073l.54-.204v-2.8c0-.55-.253-.755-.613-.755-.296 0-.614.115-.91.312v3.243l.532.204v.073h-2.27v-.073l.6-.204V63.8l-.6-.18v-.058l1.688-.32.05.042v2.962zm5.284 3.367l.588.204v.073h-2.325v-.073l.598-.204V66.19l-.597-.18v-.058l1.687-.32.05.042v3.94zm-.576-5.93c.377 0 .655.272.655.648s-.28.656-.656.656-.654-.278-.654-.655.277-.646.654-.646zm1.543 3.8h2.087v.64h-2.087v-.64zm6.491 1.909c-.436.384-1.025.6-1.58.6-1.098 0-2.04-.665-2.04-2.098 0-1.49 1.064-2.26 2.064-2.26 1.162 0 1.857.778 1.62 2.12h-2.464v.008c0 1.41.5 1.777 1.236 1.777.344 0 .77-.075 1.138-.214l.026.066zm-2.4-1.737l1.4-.064c.08-1.203-.156-1.843-.566-1.843-.41 0-.818.558-.834 1.908zm4.715-1.409l.018.01c.394-.418.86-.623 1.394-.623.654 0 1.253.336 1.253 1.376v2.603l.59.204v.073h-2.27v-.073l.54-.204v-2.8c0-.55-.253-.755-.614-.755-.295 0-.613.115-.91.312v3.243l.533.204v.073h-2.267v-.073l.597-.204V66.19l-.598-.18v-.058l1.686-.32.048.042v.572zm6.559-2.446l-.59-.18v-.058l1.68-.32.05.042v6.15l.59.18v.057l-1.68.32-.05-.04v-.574l-.017-.008c-.367.385-.81.623-1.318.623-.802 0-1.597-.704-1.597-2.12 0-1.523 1.017-2.236 1.975-2.236.343 0 .68.074.957.23V63.8zm0 2.185c-.22-.09-.45-.132-.662-.132-.58 0-1.05.573-1.05 1.94 0 1.328.387 1.745.91 1.745.27 0 .533-.105.802-.303v-3.25zm7.96-.253l.85 2.332.287.81h.016l.27-.81.656-1.95-.744-.31v-.072h1.43v.072l-.53.31-1.326 3.794h-.59l-.72-1.982-.313-.875h-.017l-.263.876-.614 1.982h-.598l-1.44-3.898-.393-.205v-.072h2.293v.072l-.672.205.712 1.966.303.85h.017l.256-.85.68-2.243h.45zm6.573 3.66a2.44 2.44 0 0 1-1.58.6c-1.097 0-2.04-.665-2.04-2.098 0-1.49 1.065-2.26 2.065-2.26 1.163 0 1.858.778 1.62 2.12h-2.463v.008c0 1.41.498 1.777 1.235 1.777.344 0 .77-.075 1.138-.214l.025.066zm-2.398-1.737l1.398-.064c.082-1.203-.155-1.843-.565-1.843-.41 0-.818.558-.833 1.908zm2.833-4.035v-.058l1.677-.32.05.042v2.962l.017.01c.376-.393.82-.623 1.317-.623.804 0 1.6.704 1.6 2.12 0 1.582-1.1 2.237-2.27 2.237a4.208 4.208 0 0 1-1.802-.434v-5.758l-.588-.18zm1.726 6.155c.173.05.36.066.518.066.754 0 1.194-.604 1.194-2.005 0-1.344-.385-1.752-.908-1.752-.263 0-.532.098-.804.303v3.39zm8.654-5.975l-.59-.18v-.058l1.68-.32.05.042v6.15l.59.18v.057l-1.68.32-.05-.04v-.574l-.016-.008c-.368.385-.81.623-1.317.623-.803 0-1.598-.704-1.598-2.12 0-1.523 1.015-2.236 1.973-2.236.344 0 .68.074.958.23V63.8zm0 2.185c-.22-.09-.45-.132-.662-.132-.582 0-1.047.573-1.047 1.94 0 1.328.385 1.745.91 1.745.27 0 .53-.105.8-.303v-3.25zm5.7 3.407c-.435.384-1.023.6-1.58.6-1.098 0-2.04-.665-2.04-2.098 0-1.49 1.064-2.26 2.064-2.26 1.16 0 1.858.778 1.62 2.12h-2.464v.008c0 1.41.5 1.777 1.236 1.777.345 0 .77-.075 1.138-.214l.025.066zm-2.4-1.737l1.4-.064c.083-1.203-.155-1.843-.564-1.843s-.82.558-.835 1.908zm3.178 1.001h.064l.696 1.153c.852.14 1.482-.156 1.482-.763 0-.94-2.276-.532-2.276-2.138 0-.91.77-1.278 1.597-1.278.427 0 .927.114 1.295.278v1.056h-.065l-.696-1.154c-.818-.138-1.26.197-1.26.688 0 1 2.308.59 2.308 2.13 0 .892-.818 1.36-1.77 1.36-.45 0-.948-.1-1.374-.28v-1.054zm5.396.957l.59.204v.073h-2.327v-.073l.6-.204V66.19l-.6-.18v-.058l1.688-.32.05.042v3.94zm-.574-5.93c.376 0 .656.272.656.648s-.28.656-.656.656-.654-.278-.654-.655.278-.646.654-.646zm5.044 2.483c.23.204.385.516.385.893 0 .923-.92 1.415-1.86 1.415-.244 0-.58-.066-.786-.123-.245.328-.17.68.246.68h1.113c1.114 0 1.695.41 1.695 1.18 0 .826-1.015 1.58-2.587 1.58-1.252 0-1.76-.483-1.76-.99 0-.377.352-.746.942-.844v-.018c-.622-.318-.394-1.12.237-1.61v-.02c-.574-.22-.952-.66-.952-1.25 0-.936.91-1.427 1.852-1.427.245 0 .492.033.71.1h1.47v.057l-.706.36v.016zm-2.49 3.824c-.44.86-.007 1.652.983 1.652.868 0 1.384-.424 1.384-1.04 0-.302-.212-.548-.687-.548h-1.245c-.164 0-.303-.016-.433-.064zm1.024-4.243c-.417 0-.713.427-.713 1.312 0 .866.296 1.3.713 1.3s.703-.434.703-1.3c0-.886-.285-1.313-.702-1.313zm4.422.499l.017.01c.393-.418.86-.623 1.392-.623.654 0 1.252.336 1.252 1.376v2.603l.588.204v.073h-2.268v-.073l.54-.204v-2.8c0-.55-.254-.755-.613-.755-.297 0-.615.115-.91.312v3.243l.532.204v.073h-2.27v-.073l.6-.204V66.19l-.6-.18v-.058l1.688-.32.05.042v.572zM40.404.023h7.292v33.783h-7.292zM55.83 0v56.86l7.295 7.3V0zM24.78 26.477l7.293 7.325.002-15.21H24.78zM43.588 56.79L6.734 19.94 26.664.008h-10.38L0 16.288v7.287L33.22 56.79zm38.502.008h10.37L103.055 46.2v-7.286L89.872 25.76H79.494l16.833 16.795zM70.4 33.8h7.296v14.24H70.4z" fill="#24132E"/></svg>